<?xml version="1.0" encoding="UTF-8"?> <svg xmlns="http://www.w3.org/2000/svg" id="Composant_19_1" data-name="Composant 19 – 1" width="509.853" height="261.488" viewBox="0 0 509.853 261.488"><defs><style> .cls-1 { fill: #47b36e; } .cls-2 { fill: #fafffc; } .cls-3 { fill: none; } </style></defs><g id="Groupe_899" data-name="Groupe 899" transform="translate(3.132 0.002)"><path id="Tracé_1123" data-name="Tracé 1123" class="cls-1" d="M-35.861-191.476a13.107,13.107,0,0,0,4.209-9.941v-63.972a27.127,27.127,0,0,1,8.07-19.763A27.068,27.068,0,0,1-3.7-293.34a26.946,26.946,0,0,1,19.765,8.188,27.125,27.125,0,0,1,8.069,19.763v63.972a13.263,13.263,0,0,0,2.22,7.593L51.6-195.67a13.761,13.761,0,0,0,1.188-5.747v-63.972a54.533,54.533,0,0,0-16.606-40Q19.57-321.99-3.7-321.991a54.513,54.513,0,0,0-40,16.606,54.52,54.52,0,0,0-16.608,40v63.972a13.1,13.1,0,0,0,4.211,9.941,14.281,14.281,0,0,0,5.018,3.312l12.059-.882a15.1,15.1,0,0,0,3.156-2.431" transform="translate(60.305 321.991)"></path></g><g id="Groupe_900" data-name="Groupe 900" transform="translate(290.71)"><path id="Tracé_1124" data-name="Tracé 1124" class="cls-1" d="M-165.914-114.784v-63.972a13.727,13.727,0,0,0-4.209-10.056,13.1,13.1,0,0,0-9.941-4.211h-.235a13.715,13.715,0,0,0-10.056,4.211,13.729,13.729,0,0,0-4.211,10.056v63.972a27.128,27.128,0,0,1-8.068,19.765A27.134,27.134,0,0,1-222.4-86.951a27.258,27.258,0,0,1-19.881-8.068,27.121,27.121,0,0,1-8.07-19.765v-63.972a13.728,13.728,0,0,0-4.209-10.056,13.6,13.6,0,0,0-9.941-4.211h-.35a13.588,13.588,0,0,0-9.941,4.211A13.723,13.723,0,0,0-279-178.756v63.972A53.922,53.922,0,0,0-267.275-80.4l94.3-6.894a54.41,54.41,0,0,0,7.065-27.487" transform="translate(279.004 193.024)"></path></g><g id="Groupe_901" data-name="Groupe 901" transform="translate(423.799 0)"><path id="Tracé_1125" data-name="Tracé 1125" class="cls-1" d="M-123.532-137.775q0-17.072-9.706-26.313-6.784-6.431-20.7-10.409-17.193-4.562-19.53-5.847-6.783-3.511-6.782-10.526a12.008,12.008,0,0,1,3.509-8.654,11.748,11.748,0,0,1,8.654-3.509H-145.4a13.722,13.722,0,0,0,10.056-4.211,13.094,13.094,0,0,0,4.211-9.939v-.235a13.721,13.721,0,0,0-4.211-10.057,13.722,13.722,0,0,0-10.056-4.211h-21.518a39.4,39.4,0,0,0-28.888,12.047,39.208,39.208,0,0,0-11.927,28.769q0,17.31,9.706,26.782,6.78,6.666,20.7,10.759,17.891,5.028,19.647,5.847,6.666,3.276,6.665,9.706a12.134,12.134,0,0,1-1.369,5.791l28.7-2.1c.1-1.212.156-2.441.156-3.693" transform="translate(207.734 231.685)"></path></g><g id="Groupe_902" data-name="Groupe 902" transform="translate(165.521 26.407)"><path id="Tracé_1126" data-name="Tracé 1126" class="cls-1" d="M-75.62-4.746A36.409,36.409,0,0,0-88.437-7.914,36.336,36.336,0,0,0-114.89,1.256,36.488,36.488,0,0,0-127.1,26.44a36.748,36.748,0,0,0,16.013,32.4l.919.624,2.916-4.287-.921-.625a31.138,31.138,0,0,1-13.749-27.81A31.021,31.021,0,0,1-111.443,5.132a31.184,31.184,0,0,1,22.7-7.87,31.2,31.2,0,0,1,11,2.728l1.014.455,2.13-4.733Z" transform="translate(127.165 7.98)"></path></g><g id="Groupe_903" data-name="Groupe 903" transform="translate(186.99 8.654)"><path id="Tracé_1127" data-name="Tracé 1127" class="cls-1" d="M-4.277-10.958a48.431,48.431,0,0,1,46.461,81.13A48.068,48.068,0,0,1,15.043,83.787L13.578,84l.867,5.862,1.467-.216A53.925,53.925,0,0,0,46.375,74.365,54.358,54.358,0,0,0-5.758-16.7l-1.434.371,1.481,5.738Z" transform="translate(7.192 18.428)"></path></g><g id="Groupe_904" data-name="Groupe 904" transform="translate(195.923 57.951)"><path id="Tracé_1128" data-name="Tracé 1128" class="cls-1" d="M-15.625-2.681a6.24,6.24,0,0,1,0,8.823,6.237,6.237,0,0,1-8.823,0,6.237,6.237,0,0,1,0-8.823,6.238,6.238,0,0,1,8.823,0" transform="translate(26.276 4.508)"></path></g><g id="Groupe_905" data-name="Groupe 905" transform="translate(240.611 56.145)"><path id="Tracé_1129" data-name="Tracé 1129" class="cls-1" d="M-17.826-84.367a71.585,71.585,0,0,0,20.743-56.4l-.088-1.107-5.17.412.089,1.107a66.4,66.4,0,0,1-19.242,52.32,66.559,66.559,0,0,1-8.483,7.158l9.15-.669c1.019-.909,2.023-1.844,3-2.822" transform="translate(29.977 141.873)"></path></g><g id="Groupe_906" data-name="Groupe 906" transform="translate(130.452 60.995)"><path id="Tracé_1130" data-name="Tracé 1130" class="cls-1" d="M-36.151-71.871A65.966,65.966,0,0,1-55.6-119.688l.013-1.115-5.186-.058-.012,1.111A71.1,71.1,0,0,0-39.818-68.2a71.689,71.689,0,0,0,11.262,9.187l9.173-.67A66.191,66.191,0,0,1-36.151-71.871" transform="translate(60.792 120.86)"></path></g><g id="Groupe_907" data-name="Groupe 907" transform="translate(0 159.445)"><path id="Tracé_1131" data-name="Tracé 1131" class="cls-2" d="M-41.59,0A28.171,28.171,0,0,0-61.62,7.836a25,25,0,0,0-8.318,18.87A25.005,25.005,0,0,0-61.62,45.579a28.171,28.171,0,0,0,20.03,7.836q10.678,0,16.291-5.61a5.054,5.054,0,0,0,1.772,3.941,5.9,5.9,0,0,0,4.183,1.669h.148a5.9,5.9,0,0,0,4.183-1.669A5.06,5.06,0,0,0-13.241,47.8v-21.1a25.005,25.005,0,0,0-8.317-18.87A28.172,28.172,0,0,0-41.59,0m11.518,37.6a16.179,16.179,0,0,1-11.518,4.45A16.347,16.347,0,0,1-53.154,37.6a14.487,14.487,0,0,1-4.724-10.9,14.439,14.439,0,0,1,4.724-10.85,16.253,16.253,0,0,1,11.565-4.5,16.2,16.2,0,0,1,11.518,4.5A14.378,14.378,0,0,1-25.3,26.706a14.425,14.425,0,0,1-4.774,10.9" transform="translate(69.938 0)"></path></g><g id="Groupe_908" data-name="Groupe 908" transform="translate(68.556 154.859)"><path id="Tracé_1132" data-name="Tracé 1132" class="cls-2" d="M-61.083,0h-.1a5.956,5.956,0,0,0-4.232,1.669,5.3,5.3,0,0,0-1.772,3.989V35.749a10.442,10.442,0,0,1-3.4,7.836,11.791,11.791,0,0,1-8.317,3.2,11.852,11.852,0,0,1-8.367-3.2,10.443,10.443,0,0,1-3.4-7.836V7.87a5.3,5.3,0,0,0-1.772-3.989,5.9,5.9,0,0,0-4.182-1.669h-.148a5.9,5.9,0,0,0-4.183,1.669,5.288,5.288,0,0,0-1.772,3.989V35.749A20.952,20.952,0,0,0-95.73,51.56,23.664,23.664,0,0,0-78.9,58.145,23.6,23.6,0,0,0-62.117,51.56a20.958,20.958,0,0,0,6.989-15.811V5.658A5.29,5.29,0,0,0-56.9,1.669,5.681,5.681,0,0,0-61.083,0" transform="translate(102.718)"></path></g><g id="Groupe_909" data-name="Groupe 909" transform="translate(129.683 152.825)"><path id="Tracé_1133" data-name="Tracé 1133" class="cls-2" d="M-28.519-27.89H-35.9v-13.4a5.284,5.284,0,0,0-1.772-3.987A5.99,5.99,0,0,0-41.856-46.9H-42a5.989,5.989,0,0,0-4.182,1.623,5.291,5.291,0,0,0-1.772,3.987V-1.209A13.723,13.723,0,0,0-43.43,9.084,15.531,15.531,0,0,0-32.456,13.35h3.937a5.905,5.905,0,0,0,4.185-1.669,5.06,5.06,0,0,0,1.772-3.941V7.647A5.292,5.292,0,0,0-24.334,3.66a5.905,5.905,0,0,0-4.185-1.669h-3.937a3.442,3.442,0,0,1-2.46-.929A3,3,0,0,1-35.9-1.209V-16.532h7.382A5.906,5.906,0,0,0-24.334-18.2a5.057,5.057,0,0,0,1.772-3.941v-.093a5.293,5.293,0,0,0-1.772-3.987,5.905,5.905,0,0,0-4.185-1.669" transform="translate(47.958 46.901)"></path></g><g id="Groupe_910" data-name="Groupe 910" transform="translate(171.165 149.156)"><path id="Tracé_1134" data-name="Tracé 1134" class="cls-2" d="M-35.958,0h-2.806A21.582,21.582,0,0,0-54.118,5.981a19.621,19.621,0,0,0-6.35,14.466V58.753A5.06,5.06,0,0,0-58.7,62.694a6.033,6.033,0,0,0,2.2,1.328,6.058,6.058,0,0,0,1.988.341h.146a5.9,5.9,0,0,0,4.184-1.669c.019-.017.031-.037.05-.054a5.051,5.051,0,0,0,1.722-3.888V20.447A8.754,8.754,0,0,1-45.6,14a9.609,9.609,0,0,1,6.84-2.641h2.806A5.949,5.949,0,0,0-31.726,9.69,5.2,5.2,0,0,0-30,5.751V5.658a5.354,5.354,0,0,0-1.723-3.989A5.956,5.956,0,0,0-35.958,0" transform="translate(60.468)"></path></g><g id="Groupe_911" data-name="Groupe 911" transform="translate(269.305 139.171)"><path id="Tracé_1135" data-name="Tracé 1135" class="cls-2" d="M-86.5,0C-94.307,0-102.87,4.3-104.9,10.568c-2.349-3.7-6.81-8.251-16.883-7.718-6.519.344-12.107,2.18-16.732,6.538a20.972,20.972,0,0,0-6.939,15.766V68.894a5.052,5.052,0,0,0,1.772,3.941A5.9,5.9,0,0,0-139.5,74.5h.148a5.9,5.9,0,0,0,4.183-1.669,5.058,5.058,0,0,0,1.772-3.941V25.153a10.251,10.251,0,0,1,3.4-7.745,11.551,11.551,0,0,1,8.219-3.2,11.548,11.548,0,0,1,8.219,3.2,10.251,10.251,0,0,1,3.4,7.745V68.894a5.058,5.058,0,0,0,1.772,3.941,5.963,5.963,0,0,0,4.234,1.669h.1a5.685,5.685,0,0,0,4.184-1.669,5.059,5.059,0,0,0,1.772-3.941V22.3a10.245,10.245,0,0,1,3.4-7.743,11.552,11.552,0,0,1,8.219-3.2,11.617,11.617,0,0,1,8.268,3.2,10.245,10.245,0,0,1,3.4,7.743V68.894a5.059,5.059,0,0,0,1.772,3.941A5.68,5.68,0,0,0-68.88,74.5h.1a5.958,5.958,0,0,0,4.232-1.669,5.209,5.209,0,0,0,1.722-3.941V22.3A20.972,20.972,0,0,0-69.766,6.538,23.526,23.526,0,0,0-86.5,0" transform="translate(145.457)"></path></g><g id="Groupe_912" data-name="Groupe 912" transform="translate(422.213 131.531)"><path id="Tracé_1136" data-name="Tracé 1136" class="cls-2" d="M-59.566-9.464a23.876,23.876,0,0,0-16.781-6.451A23.939,23.939,0,0,0-93.178-9.464a20.4,20.4,0,0,0-6.989,15.539V60.753a4.91,4.91,0,0,0,1.772,3.863,5.962,5.962,0,0,0,4.182,1.634h.149a5.962,5.962,0,0,0,4.182-1.634,4.916,4.916,0,0,0,1.772-3.863V6.075a10.142,10.142,0,0,1,3.4-7.679,11.9,11.9,0,0,1,8.367-3.179A11.837,11.837,0,0,1-68.03-1.6a10.181,10.181,0,0,1,3.264,6.05,10.959,10.959,0,0,1,.132,1.628V60.753a4.917,4.917,0,0,0,1.772,3.863,6.024,6.024,0,0,0,4.232,1.634h.1a5.743,5.743,0,0,0,4.183-1.634,4.917,4.917,0,0,0,1.772-3.863V6.075a21.553,21.553,0,0,0-.407-4.184A20.693,20.693,0,0,0-59.566-9.464" transform="translate(100.167 15.915)"></path></g><g id="Groupe_913" data-name="Groupe 913" transform="translate(484.458 128.154)"><path id="Tracé_1137" data-name="Tracé 1137" class="cls-2" d="M-28.519-44.555a5.907,5.907,0,0,0,4.185-1.669,5.057,5.057,0,0,0,1.772-3.941v-.093a5.292,5.292,0,0,0-1.772-3.986,5.906,5.906,0,0,0-4.185-1.669H-35.9v-13.4A5.283,5.283,0,0,0-37.673-73.3a5.988,5.988,0,0,0-4.183-1.624H-42A5.989,5.989,0,0,0-46.186-73.3a5.289,5.289,0,0,0-1.772,3.986V-4.285A13.717,13.717,0,0,0-43.43,6.008a15.524,15.524,0,0,0,10.973,4.267h3.937A5.9,5.9,0,0,0-24.334,8.6a5.053,5.053,0,0,0,1.772-3.939V4.572A5.292,5.292,0,0,0-24.334.584a5.906,5.906,0,0,0-4.185-1.669h-3.937a3.449,3.449,0,0,1-2.46-.927A3,3,0,0,1-35.9-4.285V-44.555Z" transform="translate(47.958 74.924)"></path></g><g id="Groupe_914" data-name="Groupe 914" transform="translate(213.09 146.497)"><path id="Tracé_1138" data-name="Tracé 1138" class="cls-2" d="M-52.129,0H-69.7A17.852,17.852,0,0,0-82.4,4.961a15.84,15.84,0,0,0-5.266,11.964V49.6a15.622,15.622,0,0,0,2.31,8.347A17.653,17.653,0,0,0-82.4,61.561a17.852,17.852,0,0,0,12.7,4.961h17.571a5.9,5.9,0,0,0,4.183-1.669,5.053,5.053,0,0,0,1.772-3.941v-.093a5.289,5.289,0,0,0-1.772-3.989,5.9,5.9,0,0,0-4.183-1.669H-69.7a6.388,6.388,0,0,1-1.7-.244,5.752,5.752,0,0,1-2.486-1.38A5.205,5.205,0,0,1-75.6,49.6V39.243h23.475a5.98,5.98,0,0,0,4.183-1.624,5.284,5.284,0,0,0,1.772-3.986V33.54a5.286,5.286,0,0,0-1.772-3.987,5.99,5.99,0,0,0-4.183-1.623H-75.6v-11a5.21,5.21,0,0,1,1.722-3.941A5.878,5.878,0,0,1-69.7,11.361h17.571a5.9,5.9,0,0,0,4.183-1.669,5.286,5.286,0,0,0,1.772-3.987V5.612a5.051,5.051,0,0,0-1.772-3.941A5.9,5.9,0,0,0-52.129,0" transform="translate(87.662 0)"></path></g><g id="Groupe_915" data-name="Groupe 915" transform="translate(366.764 135.88)"><path id="Tracé_1139" data-name="Tracé 1139" class="cls-2" d="M-52.129,0H-69.7A17.851,17.851,0,0,0-82.4,4.961a15.839,15.839,0,0,0-5.266,11.962V60.714A15.841,15.841,0,0,0-82.4,72.679,17.851,17.851,0,0,0-69.7,77.64h17.571a5.891,5.891,0,0,0,4.183-1.671,5.046,5.046,0,0,0,1.772-3.939v-.093a5.286,5.286,0,0,0-1.772-3.989,5.9,5.9,0,0,0-4.183-1.669H-69.7a5.867,5.867,0,0,1-4.182-1.624A5.206,5.206,0,0,1-75.6,60.714V44.771h23.475a5.98,5.98,0,0,0,4.183-1.624,5.285,5.285,0,0,0,1.772-3.986v-.093a5.285,5.285,0,0,0-1.772-3.987,5.99,5.99,0,0,0-4.183-1.623H-75.6V16.924a5.206,5.206,0,0,1,1.722-3.939A5.877,5.877,0,0,1-69.7,11.361h17.571a5.9,5.9,0,0,0,4.183-1.669A5.287,5.287,0,0,0-46.175,5.7V5.61a5.057,5.057,0,0,0-1.772-3.941A5.9,5.9,0,0,0-52.129,0" transform="translate(87.662)"></path></g><path id="Tracé_1140" data-name="Tracé 1140" class="cls-3" d="M0-383.626H509.853V-645.114H0Z" transform="translate(0 645.114)"></path><path id="Tracé_1141" data-name="Tracé 1141" class="cls-2" d="M0,0V19.122H13.009V16.064H3.255V0Z" transform="translate(151.135 242.038)"></path><g id="Groupe_918" data-name="Groupe 918" transform="translate(128.658 242.038)"><path id="Tracé_1142" data-name="Tracé 1142" class="cls-2" d="M-18.511-16.153c0,3.525-1.778,5.3-4.667,5.3-2.918,0-4.693-1.885-4.693-5.437V-27.164h-3.258v11.011c0,5.546,3.072,8.412,7.9,8.412,4.852,0,7.975-2.866,7.975-8.577V-27.164h-3.255Z" transform="translate(31.129 27.164)"></path></g><g id="Groupe_919" data-name="Groupe 919" transform="translate(186.012 242.038)"><path id="Tracé_1143" data-name="Tracé 1143" class="cls-2" d="M-18.508-16.153c0,3.525-1.776,5.3-4.667,5.3-2.916,0-4.693-1.885-4.693-5.437V-27.164h-3.255v11.011c0,5.546,3.07,8.412,7.9,8.412,4.852,0,7.975-2.866,7.975-8.577V-27.164h-3.255Z" transform="translate(31.123 27.164)"></path></g><path id="Tracé_1144" data-name="Tracé 1144" class="cls-3" d="M0-383.626H509.853V-645.114H0Z" transform="translate(0 645.114)"></path><path id="Tracé_1145" data-name="Tracé 1145" class="cls-2" d="M0,0V3.111H5.882V19.122H9.166V3.111h5.883V0Z" transform="translate(165.685 242.038)"></path><path id="Tracé_1146" data-name="Tracé 1146" class="cls-1" d="M0-6.117H1.7l1.347-4.17-2.777.6Z" transform="translate(20.632 256.325)"></path><path id="Tracé_1147" data-name="Tracé 1147" class="cls-2" d="M-11.156-1.2l-7.6,17.947h3.338l1.908-4.617h8.773l1.881,4.617H.584L-7.371-2.026Zm2.016,2.7,3.205,7.65h-6.387Z" transform="translate(47.849 244.418)"></path><path id="Tracé_1148" data-name="Tracé 1148" class="cls-2" d="M0-1.036V9.58H13.009V6.522H3.257V-1.743Z" transform="translate(2.903 251.581)"></path><g id="Groupe_925" data-name="Groupe 925" transform="translate(106.45 241.711)"><path id="Tracé_1149" data-name="Tracé 1149" class="cls-2" d="M-13.992-24.451c-3.55,0-6.121-3.033-6.121-6.778v-.054c0-3.744,2.6-6.752,6.121-6.752a7.286,7.286,0,0,1,5.2,2.379L-6.7-38.144a9.536,9.536,0,0,0-7.263-2.973c-5.618,0-9.564,4.45-9.564,9.888v.056c0,5.493,4.026,9.834,9.432,9.834a9.451,9.451,0,0,0,7.526-3.385l-2.093-2.186a7.151,7.151,0,0,1-5.328,2.46" transform="translate(23.529 41.117)"></path></g><g id="Groupe_926" data-name="Groupe 926" transform="translate(51.748 241.711)"><path id="Tracé_1150" data-name="Tracé 1150" class="cls-2" d="M-13.88-17.151h4.745v3.581a7.411,7.411,0,0,1-4.481,1.451c-3.791,0-6.309-2.9-6.309-6.832v-.056c0-3.661,2.6-6.752,6.018-6.752a7.147,7.147,0,0,1,5.2,2.052l2.065-2.543a9.84,9.84,0,0,0-7.129-2.592,9.6,9.6,0,0,0-9.566,9.889v.054c0,5.575,3.814,9.834,9.62,9.834a11.614,11.614,0,0,0,7.736-2.975v-8.033h-7.9Z" transform="translate(23.341 28.841)"></path></g><path id="Tracé_1151" data-name="Tracé 1151" class="cls-3" d="M0-383.626H509.853V-645.114H0Z" transform="translate(0 645.114)"></path><path id="Tracé_1152" data-name="Tracé 1152" class="cls-2" d="M239.147-28.862H242.4V-47.984h-3.257Z" transform="translate(-142.212 290.022)"></path><g id="Groupe_928" data-name="Groupe 928" transform="translate(75.468 242.038)"><path id="Tracé_1153" data-name="Tracé 1153" class="cls-2" d="M-22.235-8.935v-.054a5.884,5.884,0,0,0-1.535-4.127,7.339,7.339,0,0,0-5.353-1.91h-8.268V4.1h3.257V-2.57h4.082L-25.49,4.1h3.865l-5.007-7.24a5.7,5.7,0,0,0,4.4-5.792m-11.9,3.389V-11.97h4.745c2.413,0,3.845,1.121,3.845,3.171v.056c0,1.941-1.486,3.2-3.818,3.2Z" transform="translate(37.391 15.025)"></path></g><path id="Tracé_1154" data-name="Tracé 1154" class="cls-3" d="M0-383.626H509.853V-645.114H0Z" transform="translate(0 645.114)"></path><path id="Tracé_1155" data-name="Tracé 1155" class="cls-2" d="M1248.036-6.334h3.522V-10.1h-3.522Z" transform="translate(-742.162 267.494)"></path><g id="Groupe_930" data-name="Groupe 930" transform="translate(433.653 242.038)"><path id="Tracé_1156" data-name="Tracé 1156" class="cls-2" d="M-17.265-13.466a4.561,4.561,0,0,0,2.647-4.263v-.056a4.356,4.356,0,0,0-1.244-3.169,6.574,6.574,0,0,0-4.85-1.692h-8.322V-3.523h8.587c4.135,0,6.861-1.828,6.861-5.243v-.056c0-2.6-1.508-3.879-3.68-4.644m-8.565-6.2h4.693c2.1,0,3.262.929,3.262,2.433v.054c0,1.749-1.4,2.6-3.5,2.6H-25.83Zm8.989,10.547c0,1.723-1.353,2.625-3.581,2.625H-25.83v-5.25h5.171c2.571,0,3.818.958,3.818,2.571Z" transform="translate(29.034 22.645)"></path></g><path id="Tracé_1157" data-name="Tracé 1157" class="cls-3" d="M0-383.626H509.853V-645.114H0Z" transform="translate(0 645.114)"></path><path id="Tracé_1158" data-name="Tracé 1158" class="cls-2" d="M-19.016,0V13.221L-28.959,0h-3.019V19.122h3.2V5.518l10.234,13.6h2.726V0Z" transform="translate(432.503 242.038)"></path><path id="Tracé_1159" data-name="Tracé 1159" class="cls-2" d="M0,0V19.122H3.255V11.336h9.356V8.279H3.255V3.055H13.8V0Z" transform="translate(454.91 242.038)"></path><g id="Groupe_934" data-name="Groupe 934" transform="translate(208.486 242.038)"><path id="Tracé_1160" data-name="Tracé 1160" class="cls-2" d="M-22.235-8.935v-.054a5.884,5.884,0,0,0-1.535-4.127,7.339,7.339,0,0,0-5.353-1.91h-8.268V4.1h3.256V-2.57h4.083L-25.49,4.1h3.865l-5.007-7.24a5.706,5.706,0,0,0,4.4-5.792m-11.9,3.389V-11.97h4.747c2.413,0,3.845,1.121,3.845,3.171v.056c0,1.941-1.486,3.2-3.818,3.2Z" transform="translate(37.391 15.025)"></path></g><g id="Groupe_935" data-name="Groupe 935" transform="translate(473.434 241.711)"><path id="Tracé_1161" data-name="Tracé 1161" class="cls-2" d="M-13.995-24.451c-3.552,0-6.123-3.033-6.123-6.778v-.054c0-3.744,2.6-6.752,6.123-6.752A7.281,7.281,0,0,1-8.8-35.655l2.094-2.489a9.537,9.537,0,0,0-7.263-2.973c-5.618,0-9.564,4.45-9.564,9.888v.056c0,5.493,4.026,9.834,9.432,9.834a9.451,9.451,0,0,0,7.526-3.385l-2.093-2.186a7.15,7.15,0,0,1-5.326,2.46" transform="translate(23.534 41.117)"></path></g><path id="Tracé_1162" data-name="Tracé 1162" class="cls-3" d="M0-383.626H509.853V-645.114H0Z" transform="translate(0 645.114)"></path><path id="Tracé_1163" data-name="Tracé 1163" class="cls-2" d="M0,0V19.122H13.884v-3H3.255V10.979h9.3v-3h-9.3V3h10.5V0Z" transform="translate(380.649 242.038)"></path><path id="Tracé_1164" data-name="Tracé 1164" class="cls-2" d="M0,0V19.122H13.885v-3H3.258V10.979h9.3v-3h-9.3V3h10.5V0Z" transform="translate(350.699 242.038)"></path><g id="Groupe_939" data-name="Groupe 939" transform="translate(280.149 241.711)"><path id="Tracé_1165" data-name="Tracé 1165" class="cls-2" d="M-14.267,0a9.648,9.648,0,0,0-9.725,9.887v.056a9.559,9.559,0,0,0,9.671,9.834,9.65,9.65,0,0,0,9.727-9.89V9.834A9.56,9.56,0,0,0-14.267,0M-8.01,9.943c0,3.717-2.571,6.723-6.257,6.723s-6.309-3.062-6.309-6.779V9.834c0-3.717,2.571-6.752,6.255-6.752S-8.01,6.171-8.01,9.887Z" transform="translate(23.992)"></path></g><g id="Groupe_940" data-name="Groupe 940" transform="translate(259.717 242.038)"><path id="Tracé_1166" data-name="Tracé 1166" class="cls-2" d="M-17.263-13.466a4.561,4.561,0,0,0,2.648-4.263v-.056a4.355,4.355,0,0,0-1.245-3.169,6.572,6.572,0,0,0-4.85-1.692h-8.32V-3.523h8.585c4.135,0,6.861-1.828,6.861-5.243v-.056c0-2.6-1.508-3.879-3.68-4.644m-8.565-6.2h4.693c2.1,0,3.262.929,3.262,2.433v.054c0,1.749-1.405,2.6-3.5,2.6h-4.454Zm8.989,10.547c0,1.723-1.354,2.625-3.579,2.625h-5.41v-5.25h5.171c2.571,0,3.818.958,3.818,2.571Z" transform="translate(29.029 22.645)"></path></g><path id="Tracé_1167" data-name="Tracé 1167" class="cls-3" d="M0-383.626H509.853V-645.114H0Z" transform="translate(0 645.114)"></path><path id="Tracé_1168" data-name="Tracé 1168" class="cls-2" d="M0-1.4,1.006,10.7H2.779L3.76-1.4v-.956H0Z" transform="translate(505.742 244.397)"></path><path id="Tracé_1169" data-name="Tracé 1169" class="cls-2" d="M0,0V19.122H13.884v-3H3.257V10.979h9.3v-3h-9.3V3h10.5V0Z" transform="translate(229.768 242.038)"></path><g id="Groupe_944" data-name="Groupe 944" transform="translate(305.327 242.038)"><path id="Tracé_1170" data-name="Tracé 1170" class="cls-2" d="M-18.508-16.153c0,3.525-1.776,5.3-4.665,5.3-2.918,0-4.693-1.885-4.693-5.437V-27.164h-3.257v11.011c0,5.546,3.072,8.412,7.9,8.412,4.852,0,7.975-2.866,7.975-8.577V-27.164h-3.257Z" transform="translate(31.123 27.164)"></path></g><g id="Groupe_945" data-name="Groupe 945" transform="translate(326.981 241.711)"><path id="Tracé_1171" data-name="Tracé 1171" class="cls-2" d="M-13.878-17.151h4.745v3.581a7.41,7.41,0,0,1-4.479,1.451c-3.791,0-6.311-2.9-6.311-6.832v-.056c0-3.661,2.6-6.752,6.018-6.752a7.148,7.148,0,0,1,5.2,2.052l2.064-2.543a9.837,9.837,0,0,0-7.127-2.592,9.6,9.6,0,0,0-9.566,9.889v.054c0,5.575,3.812,9.834,9.618,9.834a11.625,11.625,0,0,0,7.739-2.975v-8.033h-7.9Z" transform="translate(23.337 28.841)"></path></g><path id="Tracé_1172" data-name="Tracé 1172" class="cls-3" d="M0-383.626H509.853V-645.114H0Z" transform="translate(0 645.114)"></path><path id="Tracé_1173" data-name="Tracé 1173" class="cls-2" d="M-5.248,0H-8.268l-.557,1.313L-5.039.492Z" transform="translate(45.517 241.9)"></path><path id="Tracé_1174" data-name="Tracé 1174" class="cls-2" d="M-5.906,0H-9.588l-.343,4.6L-7.154,4-5.906.136Z" transform="translate(30.83 242.038)"></path><path id="Tracé_1175" data-name="Tracé 1175" class="cls-2" d="M0,0V8.506L3.257,7.8V0Z" transform="translate(2.903 242.038)"></path></svg> 