<svg fill="#fff" xmlns="http://www.w3.org/2000/svg" width="26.538" height="33.176" viewBox="0 0 26.538 33.176">
  <path d="M13.27 6.635a6.635 6.635 0 106.635 6.635 6.642 6.642 0 00-6.635-6.635zm0 9.953a3.318 3.318 0 113.317-3.318 3.321 3.321 0 01-3.317 3.317zM13.263 0A12.975 12.975 0 000 13.27c0 10.493 7.982 17.019 11.414 19.336a3.282 3.282 0 003.694 0c3.437-2.32 11.43-8.85 11.43-19.339A12.979 12.979 0 0013.263 0zm.008 29.857c-2.992-2.022-9.954-7.685-9.954-16.587a9.622 9.622 0 019.946-9.952 9.737 9.737 0 019.959 9.952c0 8.897-6.971 14.565-9.951 16.587z" />
</svg>